/Applications/krita.app/Contents/MacOS/ffmpeg -hide_banner -y -y -r 10 -start_number 0 -start_number_range 1 -i /Users/bakawi/Documents/Clone Repository/video2decal/images/frame%04d.png -i /Users/bakawi/Documents/Clone Repository/video2decal/images/KritaTempPalettegen_%06d.png -lavfi [0:v][1:v]paletteuse=dither=sierra2_4a:diff_mode=none -f gif -loop 0 -gifflags +transdiff /Users/bakawi/Documents/Clone Repository/video2decal/images/loading.gif
=====================================================
Input #0, image2, from '/Users/bakawi/Documents/Clone Repository/video2decal/images/frame%04d.png':
  Duration: 00:00:00.12, start: 0.000000, bitrate: N/A
  Stream #0:0: Video: png, rgba(pc), 1450x363 [SAR 39370:39370 DAR 1450:363], 25 fps, 25 tbr, 25 tbn, 25 tbc
Input #1, image2, from '/Users/bakawi/Documents/Clone Repository/video2decal/images/KritaTempPalettegen_%06d.png':
  Duration: 00:00:00.04, start: 0.000000, bitrate: N/A
  Stream #1:0: Video: png, rgba(pc), 16x16 [SAR 1:1 DAR 1:1], 25 fps, 25 tbr, 25 tbn, 25 tbc
Stream mapping:
  Stream #0:0 (png) -> paletteuse:default
  Stream #1:0 (png) -> paletteuse:palette
  paletteuse -> Stream #0:0 (gif)
Press [q] to stop, [?] for help
Output #0, gif, to '/Users/bakawi/Documents/Clone Repository/video2decal/images/loading.gif':
  Metadata:
    encoder         : Lavf58.76.100
  Stream #0:0: Video: gif, pal8(pc, gbr/unknown/unknown, progressive), 1450x363 [SAR 1:1 DAR 1450:363], q=2-31, 200 kb/s, 10 fps, 100 tbn (default)
    Metadata:
      encoder         : Lavc58.134.100 gif
frame=    1 fps=0.0 q=-0.0 size=       0kB time=00:00:00.01 bitrate=   0.0kbits/s speed=0.397x    frame=    3 fps=0.0 q=-0.0 Lsize=      26kB time=00:00:00.21 bitrate=1021.0kbits/s speed=1.76x    
video:26kB audio:0kB subtitle:0kB other streams:0kB global headers:0kB muxing overhead: 0.074683%
